<svg width="32" height="32" viewBox="0 0 32 32" fill="none" xmlns="http://www.w3.org/2000/svg">
  <!-- Background circle -->
  <circle cx="16" cy="16" r="16" fill="#1a1a1a"/>
  
  <!-- Outer ring -->
  <circle cx="16" cy="16" r="14" stroke="#3b82f6" stroke-width="2" fill="none"/>
  
  <!-- Inner circle for AI/tech theme -->
  <circle cx="16" cy="16" r="10" fill="#1e40af" opacity="0.8"/>
  
  <!-- Central icon - combination of portfolio and AI elements -->
  <!-- Portfolio folder icon -->
  <path d="M8 10h12l2 2v8H8V10z" fill="#60a5fa" stroke="#93c5fd" stroke-width="1"/>
  <path d="M8 10h12l2 2v2H8v-2z" fill="#3b82f6"/>
  
  <!-- AI/neural network dots -->
  <circle cx="12" cy="18" r="1.5" fill="#fbbf24"/>
  <circle cx="16" cy="20" r="1.5" fill="#fbbf24"/>
  <circle cx="20" cy="18" r="1.5" fill="#fbbf24"/>
  
  <!-- Connection lines -->
  <path d="M12 18L16 20L20 18" stroke="#fbbf24" stroke-width="1" fill="none" opacity="0.7"/>
  
  <!-- Small sparkle for AI magic -->
  <path d="M24 8l1 1-1 1-1-1 1-1z" fill="#fbbf24" opacity="0.8"/>
  <path d="M26 6l0.5 0.5-0.5 0.5-0.5-0.5 0.5-0.5z" fill="#fbbf24" opacity="0.6"/>
</svg>
